<mxfile host="app.diagrams.net" modified="2024-07-10T22:28:57.043Z" agent="Mozilla/5.0 (Windows NT 10.0; Win64; x64) AppleWebKit/537.36 (KHTML, like Gecko) Chrome/126.0.0.0 Safari/537.36" version="24.6.3" etag="Ela52Snaf41ADVIbjLgM" type="github">
  <diagram name="PÃ¡gina-1" id="-d7SD07cnn0HYnGidcAS">
    <mxGraphModel>
      <root>
        <mxCell id="0" />
        <mxCell id="1" parent="0" />
      </root>
    </mxGraphModel>
  </diagram>
</mxfile>
